<?xml version="1.0" standalone="no"?>
<!DOCTYPE svg PUBLIC "-//W3C//DTD SVG 20010904//EN"
 "http://www.w3.org/TR/2001/REC-SVG-20010904/DTD/svg10.dtd">
<svg version="1.0" xmlns="http://www.w3.org/2000/svg"
 width="786.000000pt" height="226.000000pt" viewBox="0 0 786.000000 226.000000"
 preserveAspectRatio="xMidYMid meet">

<g transform="translate(0.000000,226.000000) scale(0.100000,-0.100000)"
fill="#000000" stroke="none">
<path d="M677 2093 c-4 -8 -67 -203 -162 -506 -26 -82 -48 -147 -50 -145 -2 2
-40 138 -84 303 -45 165 -85 310 -91 323 -8 17 -18 22 -50 22 -48 0 -50 -8
-20 -113 11 -40 49 -173 84 -297 35 -124 78 -278 96 -342 32 -114 34 -118 61
-118 26 0 29 5 64 118 20 64 65 207 101 318 35 110 64 205 64 212 0 6 4 13 9
16 5 4 44 -101 86 -231 132 -410 137 -424 152 -430 25 -10 45 10 59 58 7 24
49 175 94 334 44 160 92 328 105 374 14 46 22 88 19 92 -3 5 -23 9 -45 9 -51
0 -40 30 -161 -440 -27 -107 -53 -198 -56 -202 -4 -4 -43 105 -86 242 -137
428 -128 405 -158 408 -14 2 -28 0 -31 -5z"/>
<path d="M4710 2085 c-216 -70 -349 -281 -311 -494 48 -267 309 -430 562 -351
387 119 425 643 59 819 -67 32 -84 36 -170 38 -63 2 -110 -2 -140 -12z m180
-76 c119 -19 215 -93 268 -207 22 -47 27 -71 27 -142 0 -77 -3 -92 -33 -152
-142 -289 -552 -259 -655 46 -31 90 -16 210 35 291 52 83 149 150 237 165 25
4 48 8 51 9 3 0 34 -4 70 -10z"/>
<path d="M5705 2083 c-149 -54 -254 -166 -295 -315 -7 -29 -11 -82 -8 -135 3
-72 10 -100 35 -153 76 -162 230 -260 408 -260 79 0 201 28 264 60 l41 20 0
160 0 160 -125 0 c-123 0 -125 0 -131 -24 -3 -13 -1 -34 6 -45 9 -18 20 -21
86 -21 l75 0 -3 -87 -3 -88 -54 -18 c-211 -70 -406 12 -480 201 -20 52 -23 73
-19 144 6 99 28 153 91 224 92 102 237 136 367 86 14 -5 49 -26 79 -46 l54
-37 24 22 c12 13 23 30 23 40 0 21 -55 63 -128 97 -76 35 -229 42 -307 15z"/>
<path d="M1387 2083 c-4 -3 -7 -191 -7 -418 0 -306 3 -414 12 -423 15 -15 61
-15 76 0 9 9 12 115 12 414 0 221 -3 409 -6 418 -6 16 -73 23 -87 9z"/>
<path d="M1735 2077 c-3 -6 -4 -199 -3 -427 l3 -415 145 -3 c80 -1 174 2 208
7 91 14 179 58 241 122 87 88 121 174 121 306 0 139 -55 249 -168 335 -97 74
-157 88 -368 88 -131 0 -176 -3 -179 -13z m340 -78 c108 -20 184 -75 236 -171
32 -60 34 -68 34 -163 0 -87 -3 -107 -26 -155 -34 -71 -89 -126 -158 -159 -51
-24 -70 -26 -198 -29 l-143 -3 0 339 c0 186 3 342 7 345 10 11 184 8 248 -4z"/>
<path d="M2646 2074 c-3 -9 -6 -197 -6 -418 0 -299 3 -405 12 -414 9 -9 80
-12 259 -12 268 0 278 2 265 55 l-6 25 -215 0 -215 0 0 160 0 160 186 0 185 0
-3 38 -3 37 -182 3 -183 2 0 150 0 150 214 0 c206 0 215 1 221 20 3 11 3 29 0
40 -6 19 -15 20 -265 20 -226 0 -259 -2 -264 -16z"/>
<path d="M3525 2080 c-4 -6 37 -109 91 -228 53 -119 108 -242 121 -272 14 -30
44 -98 68 -150 23 -52 54 -121 69 -153 47 -106 45 -109 258 363 104 228 188
422 188 432 0 14 -8 18 -41 18 l-40 0 -43 -92 c-23 -51 -94 -209 -156 -350
-63 -142 -117 -255 -121 -250 -4 4 -68 144 -142 312 -186 420 -164 380 -208
380 -21 0 -41 -5 -44 -10z"/>
<path d="M6354 2077 c-3 -8 -4 -151 -2 -318 3 -295 4 -306 27 -356 108 -240
471 -244 588 -5 l28 57 0 315 0 315 -40 0 -40 0 -5 -300 c-5 -260 -8 -305 -23
-340 -39 -87 -113 -134 -210 -135 -96 0 -165 41 -210 125 -21 38 -22 57 -27
345 l-5 305 -38 3 c-25 2 -39 -1 -43 -11z"/>
<path d="M7245 2078 c-3 -7 -4 -200 -3 -428 l3 -415 257 -3 258 -2 6 25 c13
54 12 54 -218 57 l-213 3 0 155 0 155 183 3 c197 3 201 4 188 57 l-6 25 -185
0 -185 0 0 150 0 150 218 2 217 3 0 35 0 35 -258 3 c-201 2 -259 0 -262 -10z"/>
<path d="M424 826 c-9 -24 1 -129 12 -133 15 -5 21 13 30 86 6 58 5 61 -15 61
-12 0 -24 -6 -27 -14z"/>
<path d="M535 817 c-9 -36 -1 -120 11 -124 15 -5 21 13 30 86 6 58 5 61 -15
61 -13 0 -23 -8 -26 -23z"/>
<path d="M695 827 c-3 -7 -4 -123 -3 -257 l3 -245 115 0 c101 0 119 3 151 22
45 29 64 65 63 121 -1 39 -6 50 -38 80 l-38 34 20 21 c31 34 42 63 42 106 0
51 -45 106 -98 121 -55 15 -211 13 -217 -3z m236 -66 c30 -37 25 -96 -10 -132
-27 -27 -35 -29 -100 -29 l-71 0 0 96 0 96 81 -4 c70 -3 83 -6 100 -27z m10
-240 c20 -20 29 -39 29 -61 0 -22 -9 -41 -29 -61 -28 -28 -34 -29 -115 -29
l-86 0 0 90 0 90 86 0 c81 0 87 -1 115 -29z"/>
<path d="M7247 834 c-4 -4 -7 -122 -7 -261 l0 -254 23 3 22 3 0 255 c0 222 -2
255 -15 258 -9 1 -19 0 -23 -4z"/>
<path d="M7387 833 c-4 -3 -7 -37 -7 -75 0 -51 3 -69 13 -66 12 5 39 127 30
140 -5 10 -27 10 -36 1z"/>
<path d="M7497 833 c-4 -3 -7 -37 -7 -75 0 -51 3 -69 13 -66 12 5 39 127 30
140 -5 10 -27 10 -36 1z"/>
<path d="M6761 806 c-6 -7 -9 -20 -5 -29 15 -39 72 -19 60 21 -8 25 -38 29
-55 8z"/>
<path d="M1192 611 c-32 -16 -47 -31 -62 -63 -47 -103 -5 -208 93 -232 31 -7
93 6 122 28 16 11 17 17 7 29 -11 13 -16 13 -40 1 -45 -23 -90 -18 -123 15
-52 52 -43 60 79 63 l107 3 -1 42 c-2 98 -92 155 -182 114z m114 -56 c45 -45
30 -60 -64 -63 -75 -3 -82 -1 -82 16 0 11 12 31 26 46 36 35 86 35 120 1z"/>
<path d="M1555 619 c-17 -4 -46 -24 -64 -43 -27 -28 -35 -45 -39 -85 -6 -66 2
-93 39 -130 57 -58 148 -60 199 -6 18 19 21 28 12 37 -8 8 -22 5 -55 -12 -51
-27 -85 -23 -123 15 -19 19 -24 35 -24 75 0 40 5 56 24 75 36 36 73 42 117 18
39 -21 66 -16 56 10 -14 38 -90 62 -142 46z"/>
<path d="M1842 620 c-81 -20 -65 -50 23 -43 63 6 65 5 75 -21 19 -51 14 -58
-30 -51 -48 8 -105 -9 -125 -38 -21 -31 -19 -89 5 -120 29 -37 72 -43 119 -18
33 16 40 17 45 5 3 -8 13 -14 21 -14 15 0 16 16 13 130 -3 115 -5 132 -24 150
-23 24 -75 32 -122 20z m92 -156 c26 -10 20 -60 -10 -83 -51 -40 -114 -21
-114 33 0 42 72 70 124 50z"/>
<path d="M2493 620 c-35 -14 -56 -54 -48 -91 6 -24 21 -40 71 -71 50 -31 64
-46 64 -64 0 -35 -35 -46 -83 -26 -28 11 -41 12 -49 4 -30 -30 67 -71 119 -51
43 16 63 39 63 74 0 42 -16 62 -81 100 -42 24 -54 37 -54 56 0 21 4 24 35 23
19 -1 44 -3 55 -5 12 -3 21 2 23 14 2 12 -7 22 -32 32 -40 17 -52 18 -83 5z"/>
<path d="M2782 610 c-122 -56 -101 -262 31 -294 31 -7 93 6 122 28 16 12 17
16 6 30 -12 14 -15 14 -34 1 -25 -17 -80 -20 -108 -5 -16 9 -49 58 -49 74 0 3
48 7 108 8 l107 3 3 31 c5 54 -20 99 -70 123 -54 26 -62 26 -116 1z m117 -56
c12 -15 21 -35 21 -46 0 -17 -7 -19 -82 -16 -49 2 -83 7 -85 14 -2 6 8 26 22
43 36 42 93 44 124 5z"/>
<path d="M3635 616 c-37 -16 -82 -68 -91 -102 -24 -94 47 -197 134 -197 83 0
146 66 146 153 0 63 -29 109 -84 138 -51 25 -63 26 -105 8z m98 -56 c36 -29
52 -81 37 -125 -29 -86 -126 -101 -165 -25 -52 101 45 215 128 150z"/>
<path d="M4492 620 c-81 -20 -65 -50 23 -43 63 6 65 5 75 -21 19 -51 14 -58
-30 -51 -48 8 -105 -9 -125 -38 -21 -31 -19 -89 5 -120 29 -37 72 -43 119 -18
33 16 40 17 45 5 3 -8 12 -14 21 -14 13 0 15 19 15 124 0 115 -2 127 -22 151
-26 29 -74 39 -126 25z m96 -162 c35 -35 -12 -98 -74 -98 -52 0 -72 52 -34 90
23 23 88 28 108 8z"/>
<path d="M4837 611 c-33 -17 -38 -17 -46 -3 -5 9 -15 13 -25 9 -15 -6 -16 -24
-14 -149 3 -140 4 -143 26 -146 22 -3 22 -2 22 107 0 108 1 110 27 131 20 15
38 20 61 18 25 -3 36 1 43 14 8 15 5 20 -16 28 -34 13 -35 13 -78 -9z"/>
<path d="M5076 620 c-103 -31 -137 -187 -58 -263 33 -32 84 -49 121 -41 52 11
81 27 81 44 0 27 -10 30 -41 15 -50 -26 -93 -19 -128 20 -17 20 -31 40 -31 45
0 6 44 10 104 10 115 0 132 8 120 57 -22 90 -90 136 -168 113z m91 -62 c12
-13 23 -32 25 -43 3 -19 -3 -20 -82 -20 -79 0 -85 1 -82 20 5 31 49 65 86 65
21 0 40 -8 53 -22z"/>
<path d="M5525 616 c-17 -7 -36 -25 -43 -40 -18 -40 1 -73 73 -121 68 -47 77
-67 42 -90 -23 -15 -28 -15 -62 -1 -48 20 -55 20 -55 -3 0 -17 14 -26 74 -45
47 -16 116 36 116 87 0 25 -39 65 -90 93 -27 15 -51 33 -55 42 -13 34 42 55
85 32 15 -8 21 -6 30 9 8 16 7 22 -7 29 -34 18 -78 21 -108 8z"/>
<path d="M5855 623 c-11 -3 -26 -10 -33 -16 -9 -7 -16 -7 -24 1 -35 35 -38 18
-38 -248 0 -252 1 -260 20 -260 26 0 32 28 28 139 -2 50 -1 91 2 91 3 0 22 -5
42 -10 77 -22 156 38 166 126 12 108 -73 200 -163 177z m86 -72 c24 -25 29
-38 29 -79 0 -83 -61 -131 -131 -102 -29 12 -29 13 -29 96 0 74 2 84 22 98 35
25 76 20 109 -13z"/>
<path d="M6195 623 c-64 -16 -105 -78 -105 -158 0 -74 38 -128 102 -145 41
-12 99 -1 133 24 16 11 17 17 7 29 -11 13 -16 13 -40 1 -45 -23 -90 -18 -123
15 -53 53 -43 61 76 61 103 0 105 0 111 24 13 54 -29 123 -89 145 -30 11 -39
12 -72 4z m70 -49 c19 -8 48 -61 40 -74 -3 -6 -42 -10 -86 -10 -73 0 -79 2
-79 20 0 48 71 84 125 64z"/>
<path d="M6534 619 c-103 -30 -143 -165 -74 -252 27 -34 93 -59 136 -51 44 8
102 60 86 76 -9 9 -22 6 -51 -10 -21 -12 -50 -22 -64 -22 -35 0 -75 35 -86 75
-28 101 68 183 143 124 25 -20 29 -20 44 -6 14 15 14 18 -3 37 -10 11 -34 24
-54 30 -41 11 -36 11 -77 -1z"/>
<path d="M6984 621 c-54 -14 -64 -20 -58 -35 5 -13 18 -14 65 -9 68 7 89 -4
89 -49 0 -28 -1 -29 -35 -22 -24 4 -51 1 -80 -11 -38 -14 -46 -22 -57 -56 -16
-55 6 -102 57 -119 31 -10 41 -9 75 8 36 17 41 18 49 4 5 -9 15 -13 25 -9 13
5 16 23 16 104 0 101 -11 163 -33 181 -18 15 -77 22 -113 13z m80 -157 c25
-10 21 -70 -6 -88 -27 -19 -79 -21 -96 -4 -17 17 -15 58 5 80 16 18 66 24 97
12z"/>
<path d="M2100 500 c0 -117 1 -120 28 -152 24 -26 36 -31 73 -31 24 0 58 7 76
16 27 14 32 15 37 2 3 -8 12 -15 21 -15 13 0 15 22 15 151 0 150 0 150 -22
147 -22 -3 -23 -8 -26 -109 -3 -119 -11 -135 -73 -145 -25 -4 -41 -1 -59 14
-23 19 -25 27 -28 131 -4 101 -6 111 -23 111 -18 0 -19 -9 -19 -120z"/>
<path d="M3180 610 c0 -6 31 -72 69 -148 l68 -137 -47 -105 c-27 -58 -46 -108
-43 -112 2 -5 12 -8 22 -8 14 0 34 35 81 138 35 75 87 188 117 251 29 63 53
118 53 122 0 5 -11 9 -23 9 -20 0 -30 -15 -72 -107 -26 -60 -51 -112 -56 -117
-5 -5 -32 41 -63 107 -49 105 -58 117 -80 117 -14 0 -26 -5 -26 -10z"/>
<path d="M3917 613 c-11 -10 -8 -174 3 -214 21 -76 100 -106 177 -66 27 14 32
15 37 2 3 -8 12 -15 21 -15 13 0 15 22 15 151 0 150 0 150 -22 147 -22 -3 -23
-8 -26 -109 -3 -119 -11 -135 -73 -145 -25 -4 -41 -1 -59 14 -23 19 -25 27
-28 131 -3 98 -6 111 -21 111 -10 0 -21 -3 -24 -7z"/>
<path d="M6770 470 c0 -151 0 -151 23 -148 22 3 22 5 22 148 0 143 0 145 -22
148 -23 3 -23 3 -23 -148z"/>
</g>
</svg>
